<?xml version="1.0" encoding="UTF-8" standalone="no"?>
<svg
   xmlns:dc="http://purl.org/dc/elements/1.1/"
   xmlns:cc="http://creativecommons.org/ns#"
   xmlns:rdf="http://www.w3.org/1999/02/22-rdf-syntax-ns#"
   xmlns:svg="http://www.w3.org/2000/svg"
   xmlns="http://www.w3.org/2000/svg"
   width="621.33337"
   height="638.23871"
   viewBox="0 0 164.39446 168.86732"
   version="1.1"
   id="svg8">
  <defs
     id="defs2" />
  <metadata
     id="metadata5">
    <rdf:RDF>
      <cc:Work
         rdf:about="">
        <dc:format>image/svg+xml</dc:format>
        <dc:type
           rdf:resource="http://purl.org/dc/dcmitype/StillImage" />
        <dc:title></dc:title>
      </cc:Work>
    </rdf:RDF>
  </metadata>
  <g
     id="layer1"
     transform="translate(0,34.239688)">
    <g
       id="g38"
       transform="translate(-22.620722,-87.508107)">
      <path
         style="fill:#facf06;stroke-width:0.352778"
         d="m 156.85267,188.79311 c -5.43278,-9.63091 -10.16062,-18.04695 -10.50631,-18.7023 l -0.62853,-1.19154 10.29544,0.0935 10.29544,0.0935 10.35323,18.49663 c 5.69428,10.17315 10.35323,18.54721 10.35323,18.60903 0,0.0618 -4.56406,0.11228 -10.14236,0.11213 l -10.14236,-2.6e-4 z M 22.620722,205.81515 c 0,-0.10054 27.996674,-41.66052 30.866214,-45.8197 0.378231,-0.54822 1.128085,0.3878 6.157786,7.68658 3.14991,4.57095 5.644645,8.52572 5.543853,8.78838 -0.100795,0.26266 -4.570095,7.00339 -9.931781,14.97939 l -9.74852,14.50183 H 34.064498 c -6.294077,0 -11.443776,-0.0614 -11.443776,-0.13648 z m 85.093028,-51.19269 6.37389,-10.05416 h 19.26743 19.26742 l 3.87898,6.95248 c 2.13344,3.82386 4.64464,8.34824 5.58046,10.05416 l 1.70147,3.10169 H 132.56163 101.33986 Z M 75.449195,144.41403 c -3.055938,-4.54486 -5.55625,-8.36675 -5.55625,-8.49309 0,-0.22191 9.954793,-15.01586 31.687735,-47.091534 5.71867,-8.440209 10.51243,-15.476302 10.65277,-15.635763 0.29834,-0.338964 10.29801,17.33836 10.14812,17.93974 -0.1309,0.525152 -40.966804,61.512027 -41.199736,61.530247 -0.09701,0.008 -2.676702,-3.70473 -5.732639,-8.2496 z M 121.8988,126.66482 c -4.22388,-7.51857 -7.83054,-13.91865 -8.0148,-14.2224 -0.49031,-0.80826 10.63397,-17.489977 11.22544,-16.833422 0.48094,0.533858 24.86406,44.175792 24.86406,44.502732 0,0.12278 -4.58885,0.22323 -10.19745,0.22323 H 129.5786 Z"
         id="path42" />
      <path
         style="fill:#de0000;stroke-width:0.352778"
         d="M 86.705406,199.84438 C 46.28358,141.33657 42.92961,136.42577 42.934831,135.75657 c 0.0039,-0.49822 58.688729,-82.723015 58.872449,-82.487647 0.0456,0.05847 1.94682,3.585973 4.22484,7.838888 l 4.14186,7.732572 -6.44755,9.553539 c -3.54615,5.254448 -13.297984,19.634164 -21.670741,31.954928 -8.372754,12.32076 -15.66267,23.09958 -16.19981,23.95293 l -0.976619,1.55154 24.011037,35.88534 c 13.206063,19.73694 24.057583,36.04622 24.114483,36.24283 0.0569,0.19661 -2.37205,3.46175 -5.39765,7.25587 l -5.50109,6.89838 z"
         id="path40" />
    </g>
  </g>
</svg>
